<svg xmlns="http://www.w3.org/2000/svg" viewBox="0 0 200 220" width="200" height="220">
  <ellipse cx="100" cy="145" rx="50" ry="55" fill="white" stroke="#333" stroke-width="3"/>
  <circle cx="100" cy="75" r="42" fill="white" stroke="#333" stroke-width="3"/>
  <path d="M72 42 Q100 28 128 45 Q115 72 85 67 Z" fill="#5D4037" stroke="#333" stroke-width="2"/>
  <path d="M77 38 L68 18 L80 33" fill="#D4A56A" stroke="#333" stroke-width="2"/>
  <path d="M123 38 L132 18 L120 33" fill="#D4A56A" stroke="#333" stroke-width="2"/>
  <ellipse cx="58" cy="60" rx="12" ry="7" fill="white" stroke="#333" stroke-width="2" transform="rotate(-20 58 60)"/>
  <ellipse cx="142" cy="60" rx="12" ry="7" fill="white" stroke="#333" stroke-width="2" transform="rotate(20 142 60)"/>
  <circle cx="87" cy="68" r="4" fill="#333"/>
  <circle cx="113" cy="68" r="4" fill="#333"/>
  <circle cx="88" cy="67" r="1.5" fill="white"/>
  <circle cx="114" cy="67" r="1.5" fill="white"/>
  <circle cx="78" cy="82" r="6" fill="#FFB6C1" opacity="0.7"/>
  <circle cx="122" cy="82" r="6" fill="#FFB6C1" opacity="0.7"/>
  <path d="M94 88 Q100 93 106 88" fill="none" stroke="#333" stroke-width="2" stroke-linecap="round"/>
  <!-- Arm with pen -->
  <line x1="145" y1="125" x2="165" y2="155" stroke="#333" stroke-width="3" stroke-linecap="round"/>
  <rect x="162" y="152" width="4" height="20" rx="2" fill="#64B5F6" stroke="#333" stroke-width="1"/>
  <!-- Paper/notepad -->
  <rect x="45" y="150" width="35" height="45" rx="2" fill="white" stroke="#333" stroke-width="2"/>
  <line x1="52" y1="160" x2="73" y2="160" stroke="#ccc" stroke-width="1"/>
  <line x1="52" y1="167" x2="73" y2="167" stroke="#ccc" stroke-width="1"/>
  <line x1="52" y1="174" x2="73" y2="174" stroke="#ccc" stroke-width="1"/>
  <ellipse cx="80" cy="200" rx="15" ry="10" fill="#FFB6C1" stroke="#333" stroke-width="2"/>
  <ellipse cx="120" cy="200" rx="15" ry="10" fill="#FFB6C1" stroke="#333" stroke-width="2"/>
</svg>
