<svg xmlns="http://www.w3.org/2000/svg" viewBox="0 0 200 220" width="200" height="220">
  <ellipse cx="100" cy="145" rx="50" ry="55" fill="white" stroke="#333" stroke-width="3"/>
  <circle cx="100" cy="75" r="42" fill="white" stroke="#333" stroke-width="3"/>
  <path d="M72 42 Q100 28 128 45 Q115 72 85 67 Z" fill="#5D4037" stroke="#333" stroke-width="2"/>
  <path d="M77 38 L68 18 L80 33" fill="#D4A56A" stroke="#333" stroke-width="2"/>
  <path d="M123 38 L132 18 L120 33" fill="#D4A56A" stroke="#333" stroke-width="2"/>
  <ellipse cx="58" cy="60" rx="12" ry="7" fill="white" stroke="#333" stroke-width="2" transform="rotate(-20 58 60)"/>
  <ellipse cx="142" cy="60" rx="12" ry="7" fill="white" stroke="#333" stroke-width="2" transform="rotate(20 142 60)"/>
  <path d="M84 69 Q89 62 94 69" fill="none" stroke="#333" stroke-width="2.5" stroke-linecap="round"/>
  <path d="M106 69 Q111 62 116 69" fill="none" stroke="#333" stroke-width="2.5" stroke-linecap="round"/>
  <circle cx="78" cy="82" r="6" fill="#FFB6C1" opacity="0.7"/>
  <circle cx="122" cy="82" r="6" fill="#FFB6C1" opacity="0.7"/>
  <ellipse cx="100" cy="86" rx="7" ry="4" fill="#FFB6C1"/>
  <rect x="65" y="125" width="70" height="50" rx="3" fill="#E53935" stroke="#333" stroke-width="2"/>
  <line x1="100" y1="125" x2="100" y2="175" stroke="#333" stroke-width="2"/>
  <rect x="72" y="132" width="22" height="2" rx="1" fill="white" opacity="0.5"/>
  <rect x="72" y="138" width="18" height="2" rx="1" fill="white" opacity="0.5"/>
  <rect x="106" y="132" width="22" height="2" rx="1" fill="white" opacity="0.5"/>
  <rect x="106" y="138" width="18" height="2" rx="1" fill="white" opacity="0.5"/>
  <ellipse cx="80" cy="200" rx="15" ry="10" fill="#FFB6C1" stroke="#333" stroke-width="2"/>
  <ellipse cx="120" cy="200" rx="15" ry="10" fill="#FFB6C1" stroke="#333" stroke-width="2"/>
</svg>
