<svg xmlns="http://www.w3.org/2000/svg" viewBox="0 0 200 240" width="200" height="240">
  <ellipse cx="100" cy="145" rx="50" ry="55" fill="white" stroke="#333" stroke-width="3"/>
  <circle cx="100" cy="75" r="42" fill="white" stroke="#333" stroke-width="3"/>
  <path d="M72 42 Q100 28 128 45 Q115 72 85 67 Z" fill="#5D4037" stroke="#333" stroke-width="2"/>
  <path d="M77 38 L68 18 L80 33" fill="#D4A56A" stroke="#333" stroke-width="2"/>
  <path d="M123 38 L132 18 L120 33" fill="#D4A56A" stroke="#333" stroke-width="2"/>
  <ellipse cx="58" cy="60" rx="12" ry="7" fill="white" stroke="#333" stroke-width="2" transform="rotate(-20 58 60)"/>
  <ellipse cx="142" cy="60" rx="12" ry="7" fill="white" stroke="#333" stroke-width="2" transform="rotate(20 142 60)"/>
  <circle cx="87" cy="68" r="4" fill="#333"/>
  <circle cx="113" cy="68" r="4" fill="#333"/>
  <circle cx="88" cy="67" r="1.5" fill="white"/>
  <circle cx="114" cy="67" r="1.5" fill="white"/>
  <circle cx="78" cy="82" r="6" fill="#FFB6C1" opacity="0.7"/>
  <circle cx="122" cy="82" r="6" fill="#FFB6C1" opacity="0.7"/>
  <path d="M95 86 Q100 80 105 86" fill="none" stroke="#333" stroke-width="2"/>
  <!-- Scroll -->
  <rect x="70" y="120" width="60" height="100" rx="3" fill="#F5E6CB" stroke="#333" stroke-width="2"/>
  <ellipse cx="70" cy="120" rx="5" ry="8" fill="#E8D5B0" stroke="#333" stroke-width="2"/>
  <ellipse cx="130" cy="120" rx="5" ry="8" fill="#E8D5B0" stroke="#333" stroke-width="2"/>
  <line x1="80" y1="135" x2="120" y2="135" stroke="#ccc" stroke-width="1"/>
  <line x1="80" y1="145" x2="120" y2="145" stroke="#ccc" stroke-width="1"/>
  <line x1="80" y1="155" x2="120" y2="155" stroke="#ccc" stroke-width="1"/>
  <line x1="80" y1="165" x2="110" y2="165" stroke="#ccc" stroke-width="1"/>
  <ellipse cx="80" cy="220" rx="15" ry="10" fill="#FFB6C1" stroke="#333" stroke-width="2"/>
  <ellipse cx="120" cy="220" rx="15" ry="10" fill="#FFB6C1" stroke="#333" stroke-width="2"/>
</svg>
