<?xml version="1.0" encoding="utf-8"?>
<!-- Generator: Adobe Illustrator 22.0.0, SVG Export Plug-In . SVG Version: 6.00 Build 0)  -->
<svg version="1.1" xmlns="http://www.w3.org/2000/svg" xmlns:xlink="http://www.w3.org/1999/xlink" x="0px" y="0px"
	 viewBox="0 0 913.4 304.9" style="enable-background:new 0 0 913.4 304.9;" xml:space="preserve">
<style type="text/css">
	.st0{display:none;}
	.st1{display:inline;fill:#FFFFFF;}
	.st2{fill:#443437;}
	.st3{fill:#FFFFFF;}
	.st4{fill:#D6A78A;}
	.st5{fill:#B97E5F;}
	.st6{fill:#C2B8CA;}
	.st7{fill:#FF86A8;}
</style>
<g id="BG" class="st0">
	<rect x="-81.9" y="-369.9" class="st1" width="1080" height="1080"/>
</g>
<g id="Final">
	<g>
		<path class="st2" d="M197.9,68.4l-0.3-0.3h-0.3v-0.3H197l-0.6-0.3c-0.4-0.2-0.7-0.3-0.9-0.3c-0.2,0-0.4-0.1-0.6-0.3
			c-1-0.4-2-0.8-3.1-1.1c-1-0.4-1.9-0.8-3-1.1c-1-0.4-2-0.8-3-1.1c-2.1-0.6-4.1-1-6.1-1.3c-2-0.3-4-0.6-6.1-1
			c-2.1-0.2-4.1-0.3-6-0.4c-1.9-0.1-3.9,0-6,0.1l-6,0.9c-1,0.2-1.9,0.3-2.8,0.4c-1,0.1-1.9,0.3-2.8,0.7c-7.2,1.9-13.9,5.1-19.9,9.7
			c-5.7,4.4-10.4,9.4-14.2,15.1c-1.9,2.8-3.5,5.8-4.7,8.8c-1.2,3-2.3,6.1-3.3,9.1c-1.7,6.1-2.6,12.1-2.6,17.9c0,1.5,0,3,0.1,4.4
			c0.1,1.4,0.2,2.9,0.4,4.4c0.2,2.8,0.8,5.7,1.7,8.5c0.8,2.7,1.7,5.2,2.8,7.7c1.1,2.5,2.5,4.7,4,6.8c3,4.6,6.4,8.4,10,11.4
			c3.6,3.4,7.6,6.3,12,8.5c1.7,1,3.8,1.9,6.3,2.8c1.1,0.6,2.3,1,3.4,1.3s2.3,0.6,3.4,1c1.5,0.4,2.7,0.7,3.7,0.9
			c1.5,0.4,2.7,0.6,3.7,0.6c1.3,0.2,2.6,0.3,3.8,0.3c1.2,0,2.5,0,3.8,0c2.5,0,5.1-0.3,8-0.9c0.8-0.2,2.1-0.5,4-0.9
			c0.4-0.2,0.7-0.3,1-0.3c0.3,0,0.6-0.1,1-0.3c0.4-0.2,0.7-0.3,1-0.3c0.3,0,0.6-0.1,1-0.3c5.5-1.9,11-4.7,16.5-8.5
			c1.3-0.9,2.7-1.9,4-3c1.3-1,2.7-2.2,4-3.6c2.5-2.3,4.8-4.9,7.1-8c2.7-3.2,4.8-6.4,6.5-9.4c0.6-0.9,1.1-1.9,1.6-2.7
			c0.5-0.9,1-1.8,1.6-2.7c0.4-0.4,0.6-0.8,0.7-1.3c0.1-0.5,0.3-1,0.7-1.6l1.4-2.8l1.7-3.7c3-6.3,7.8-10.5,14.2-12.8
			c6.4-2.3,12.8-1.9,19.1,1.1c3.6,1.7,6.5,4,8.7,7c2.2,2.9,3.7,6.2,4.7,9.8c1.5,6.6,2.3,13.4,2.4,20.4c0.1,6.9-0.4,13.9-1.6,20.9
			c-1.5,7.4-3.5,14.4-6,21.1c-2.7,7.2-5.9,13.8-9.7,19.6c-3.8,6.5-8.3,12.5-13.4,18.2c-5.1,5.7-10.7,10.9-16.8,15.7
			c-1.9,1.5-3.5,2.7-4.8,3.7c-0.8,0.6-1.5,1.1-2.3,1.6c-0.8,0.5-1.6,1-2.6,1.6c-1.5,1.1-3.1,2.2-4.8,3.1c-1.7,0.9-3.5,1.9-5.4,2.8
			c-3.4,1.9-7,3.6-10.8,5c-3.8,1.4-7.6,2.7-11.4,3.8c-3.8,1.1-7.6,2.1-11.5,3c-3.9,0.9-7.9,1.5-12.1,1.9c-4,0.6-8,0.9-12,0.9
			c-2.1,0-4.1,0-6.1,0c-2,0-4-0.1-6.1-0.3c-7.8-0.6-15.8-1.9-24.2-4c-8-2.3-15.7-5.1-23.1-8.5c-7.4-3.4-14.4-7.6-21.1-12.5
			c-3.2-2.5-6.4-5-9.4-7.7c-3-2.7-6-5.4-8.8-8.3c-11.4-12-20.2-25.2-26.5-39.9c-3.2-7.4-5.8-14.9-7.7-22.5
			c-1.9-7.6-3.1-15.4-3.7-23.3c-0.6-7.8-0.6-15.5,0-23.1c0.4-3.8,0.9-7.6,1.4-11.4c0.6-3.8,1.3-7.6,2.3-11.4
			c1.9-7.6,4.4-14.8,7.5-21.8c3.1-6.9,6.9-13.5,11.2-19.8c8.3-12.3,18.6-22.9,30.7-31.6c3-2.1,6.1-4.1,9.3-6
			c3.1-1.9,6.3-3.7,9.5-5.4c6.1-3,12.7-5.6,19.9-7.7l10.2-2.6l10.2-1.7c1.9-0.2,3.7-0.3,5.4-0.4c1.7-0.1,3.4-0.2,5.1-0.4h10.2
			c1.7,0.2,3.4,0.3,5.1,0.4c1.7,0.1,3.3,0.3,4.8,0.7c3.6,0.4,6.9,1,10,1.7c6.5,1.3,12.8,3.2,19.1,5.7c3.2,1.3,6.3,2.8,9.1,4.3
			c2.8,1.5,5.6,3.1,8.3,4.8c3,1.7,5.7,3.5,8,5.4c0.6,0.4,1.2,0.9,1.8,1.4c0.7,0.6,1.3,1,1.9,1.4l1.7,1.7l1.1,0.9l0.3,0.3l0.3,0.3
			c3.8,3.4,5.7,7.6,5.8,12.5c0.1,4.9-1.5,9.2-4.7,12.8c-2.8,3-6.3,4.9-10.2,5.6C205.3,70.9,201.5,70.3,197.9,68.4z"/>
		<g>
			<path class="st2" d="M493.5,140.6l65,87.2c2.7,3.7,4.6,7.7,5.7,11.9c1.1,4.2,1.3,8.5,0.7,12.7c-0.6,4.2-2,8.2-4.2,11.9
				c-2.2,3.7-5.1,7-8.9,9.7c-3.6,2.7-7.5,4.6-11.8,5.7c-4.2,1.1-8.5,1.3-12.7,0.7c-4.2-0.6-8.2-2-12-4.2c-3.8-2.2-7.1-5.1-9.8-8.9
				c-2-2.9-3.5-5.7-4.7-8.6l-36.4-102.5c-0.7-2.2-1.1-4.4-0.9-6.6c0.1-2.2,0.6-4.2,1.5-6.2c0.9-1.9,2.1-3.7,3.7-5.2
				c1.6-1.6,3.5-2.7,5.8-3.5c3.6-1.2,7.2-1.3,10.6-0.2C488.5,135.8,491.3,137.8,493.5,140.6z"/>
			<path class="st2" d="M594.3,154.6l-30.1,103.2c-1.4,4.4-3.4,8.2-6.2,11.7c-2.7,3.4-6,6.2-9.7,8.2c-3.7,2.1-7.8,3.4-12.1,3.9
				c-4.4,0.6-8.8,0.2-13.3-1.2c-4.4-1.2-8.2-3.3-11.7-6.1c-3.4-2.8-6.2-6.1-8.2-9.8c-2.1-3.7-3.4-7.8-3.9-12.1
				c-0.6-4.4-0.2-8.7,1.2-13.1c0.6-2,1.4-3.9,2.2-5.6c0.9-1.7,1.9-3.4,3-5l64-86.2c2.4-3.1,5.4-4.9,9.1-5.5
				c3.7-0.6,7.2,0.3,10.3,2.5c2.5,1.7,4.2,4,5,6.8C594.9,149.1,595,151.9,594.3,154.6z"/>
			<path class="st2" d="M547,142.7l64.8,86.1c2.7,3.7,4.6,7.7,5.7,12c1.1,4.3,1.3,8.5,0.7,12.7c-0.6,4.2-2,8.2-4.2,12
				c-2.2,3.9-5.1,7.2-8.7,9.9c-3.7,2.7-7.7,4.6-12,5.7c-4.3,1.1-8.5,1.3-12.7,0.7c-4.2-0.6-8.2-2-12-4.2c-3.9-2.2-7.2-5.1-9.9-8.7
				c-1.4-1.7-2.5-3.5-3.3-5.4c-0.8-1.9-1.5-3.7-2.1-5.6l-29.3-103.6c-1-3.6-0.6-7,1.1-10.1c1.7-3.1,4.4-5.2,7.8-6.2
				c2.7-0.7,5.4-0.7,7.9,0.2C543.3,139.1,545.4,140.6,547,142.7z"/>
			<path class="st2" d="M653.1,156.3l-36.6,102.5c-1.5,4.4-3.7,8.1-6.7,11.3c-3,3.2-6.4,5.7-10.2,7.5c-3.8,1.8-7.9,2.8-12.3,3.1
				c-4.4,0.2-8.7-0.4-13-1.9c-4.4-1.5-8.1-3.7-11.3-6.7c-3.2-3-5.7-6.4-7.5-10.3c-1.8-3.9-2.9-7.9-3.2-12.2c-0.3-4.3,0.3-8.6,1.8-13
				c0.6-1.6,1.3-3.1,2.1-4.6c0.7-1.4,1.6-2.8,2.6-4.2l65.2-87.2c1.4-1.9,3-3.4,4.9-4.5c1.9-1.1,3.9-1.8,6-2.1
				c2.1-0.3,4.3-0.2,6.4,0.4c2.2,0.6,4.2,1.5,6.1,2.9c3.1,2.2,5.2,5.1,6.2,8.7C654.4,149.5,654.3,153,653.1,156.3z"/>
		</g>
		<path class="st2" d="M648.1,208.8c0-10.2,1.9-19.8,5.8-28.8c3.9-9,9.1-16.9,15.9-23.6c6.7-6.7,14.6-12,23.5-15.9
			c9-3.9,18.5-5.8,28.7-5.8c10.2,0,19.8,1.9,28.8,5.8c9,3.9,16.9,9.1,23.6,15.9c6.7,6.7,12,14.6,15.9,23.6c3.9,9,5.8,18.6,5.8,28.8
			c0,10.2-1.9,19.8-5.8,28.7c-3.9,9-9.1,16.8-15.9,23.5c-6.7,6.7-14.6,12-23.6,15.9c-9,3.9-18.6,5.8-28.8,5.8
			c-10.2,0-19.8-1.9-28.7-5.8c-9-3.9-16.8-9.1-23.5-15.9c-6.7-6.7-12-14.6-15.9-23.5C650,228.6,648.1,219,648.1,208.8z M692.7,178.2
			c0,2.6,0.7,5.1,2.2,7.5c1.5,2.4,3.5,4.4,6.2,6.2c2.6,1.7,5.6,3.1,9.1,4.1c3.4,1,7.1,1.5,11.1,1.5c4,0,7.7-0.5,11.2-1.5
			c3.5-1,6.5-2.4,9.1-4.1c2.6-1.7,4.7-3.8,6.2-6.2c1.5-2.4,2.2-4.9,2.2-7.5c0-2.6-0.7-5.1-2.2-7.5c-1.5-2.4-3.5-4.4-6.2-6.2
			c-2.6-1.7-5.7-3.1-9.1-4.1c-3.5-1-7.2-1.5-11.2-1.5c-4,0-7.7,0.5-11.1,1.5c-3.4,1-6.4,2.4-9.1,4.1c-2.6,1.7-4.7,3.8-6.2,6.2
			C693.4,173.1,692.7,175.6,692.7,178.2z M827.9,233.8c1.2,5.5,1.4,10.8,0.5,16.1s-2.7,10-5.4,14.5c-2.7,4.4-6.2,8.2-10.5,11.4
			c-4.3,3.2-9.2,5.4-14.7,6.6c-5.5,1.4-10.8,1.6-16.1,0.7c-5.2-0.9-10-2.8-14.4-5.5c-4.4-2.7-8.2-6.2-11.4-10.5
			c-3.2-4.2-5.5-9.1-6.7-14.6c-0.7-4.2-1.1-8.1-0.9-11.6l7.3-131.6c0.1-3,0.8-5.7,2.1-8.2c1.2-2.5,2.9-4.6,4.9-6.4
			c2.1-1.8,4.4-3.2,7-4.2c2.6-1,5.4-1.4,8.4-1.3c4.7,0.3,8.9,1.9,12.5,5c3.6,3.1,5.9,6.9,6.9,11.4L827.9,233.8z"/>
		<path class="st2" d="M885.9,155.4l16.6,94.1c0.7,4.2,0.6,8.3-0.6,12.2c-1.1,3.9-2.9,7.5-5.4,10.7c-2.5,3.2-5.6,5.9-9.3,8.1
			c-3.7,2.2-7.9,3.6-12.5,4.4c-4.6,0.7-9.1,0.6-13.3-0.4c-4.3-1-8.2-2.6-11.7-4.9c-3.5-2.3-6.4-5.2-8.8-8.7
			c-2.4-3.5-3.9-7.3-4.7-11.6c-0.3-1.7-0.4-3.5-0.4-5.1c0-1.7,0.1-3.3,0.4-4.8l16.6-94.1c0.7-4.2,3-7.6,6.6-10
			c3.7-2.4,7.9-3.3,12.6-2.7c3.6,0.5,6.7,2,9.2,4.4C883.9,149.5,885.4,152.3,885.9,155.4z M890.2,128.5c0,2.6-0.6,5.1-1.7,7.5
			c-1.1,2.4-2.6,4.4-4.5,6.2c-1.9,1.7-4.1,3.1-6.6,4.1c-2.6,1-5.3,1.5-8.1,1.5c-2.9,0-5.6-0.5-8.1-1.5c-2.6-1-4.8-2.4-6.6-4.1
			c-1.9-1.7-3.4-3.8-4.5-6.2c-1.1-2.4-1.7-4.9-1.7-7.5c0-2.7,0.6-5.3,1.7-7.7c1.1-2.4,2.6-4.4,4.5-6.2c1.9-1.7,4.1-3.1,6.6-4.1
			c2.6-1,5.3-1.5,8.1-1.5c2.9,0,5.6,0.5,8.1,1.5c2.6,1,4.8,2.4,6.6,4.1c1.9,1.7,3.4,3.8,4.5,6.2
			C889.6,123.2,890.2,125.8,890.2,128.5z"/>
		<g>
			<path class="st3" d="M460.4,213.1c0,0,12.8-102.1-90.4-102.1s-90.4,102.1-90.4,102.1s-14.3,31.2,8.5,55.3
				c19.1,20.2,57.4,22.3,81.9,22.3s62.7-2.1,81.9-22.3C474.7,244.4,460.4,213.1,460.4,213.1z"/>
			<path class="st2" d="M276.1,225.5c1.3-7.5,3.5-12.4,3.5-12.4s-10-79.8,59-98.3c0,0,35.9,6,46.1,43.9c9.5,35.5-6.5,70.8-48.3,78.2
				C297.8,243.7,276.1,225.5,276.1,225.5z"/>
			<path d="M370,293.2c-15.3,0-61.8,0-83.7-23.1c-21.8-23-11.2-52.5-9.2-57.4c-0.6-6-3.9-47.7,21.7-76.8c16-18.2,40-27.4,71.2-27.4
				c31.2,0,55.2,9.2,71.2,27.4c25.7,29.1,22.4,70.8,21.7,76.8c1.9,4.8,12.5,34.4-9.2,57.4C431.8,293.2,385.3,293.2,370,293.2z
				 M370,113.6c-29.7,0-52.4,8.6-67.5,25.7c-25.7,29.1-20.5,73.1-20.4,73.6c0.1,0.5,0,0.9-0.2,1.3c-0.5,1.2-13.3,30,8,52.5
				c20.4,21.5,65.3,21.5,80,21.5c14.7,0,59.6,0,80-21.5c21.3-22.5,8.6-51.3,8-52.5c-0.2-0.4-0.3-0.9-0.2-1.3
				c0.1-0.4,5.2-44.6-20.5-73.6C422.4,122.2,399.7,113.6,370,113.6z"/>
			<path class="st3" d="M457.9,201c7,0.4,16.8-0.3,27.5-4.6c18.1-7.3,25.5-23.1,22.1-26.9c-1.6-1.8-6.4-0.6-13.8-2.1
				c-9-1.9-17.9-9.1-35.8-7.3c-11.5,1.2-18.7,9.4-22.3,15.1c-2.6,4.1-1.7,11.7,1.5,16.4C441.9,198.5,450.7,200.6,457.9,201z"/>
			<path class="st4" d="M318.4,138.8c0,0-9.1-2.9-14.8-12.8c-5.8-10.1-1.7-20.2-6-21.9c-4.1-1.7-19.3,8.6-18.1,30.9
				c1.1,21.1,15,27.6,15,27.6s11.8,3.4,18.9-3.4C323.4,149.5,318.4,138.8,318.4,138.8z"/>
			<path class="st5" d="M297.5,104c-4.1-1.7-19.3,8.6-18.1,30.9c1.1,21.1,15,27.6,15,27.6s8.5,2.5,15.4-0.9c0,0-18.8-6.8-22.6-25.2
				C282.4,112.7,297.5,104,297.5,104z"/>
			<path class="st3" d="M282.1,201c-7,0.4-16.8-0.3-27.5-4.6c-18.1-7.3-25.5-23.1-22.1-26.9c1.6-1.8,6.4-0.6,13.8-2.1
				c9-1.9,17.9-9.1,35.8-7.3c11.5,1.2,18.7,9.4,22.3,15.1c2.6,4.1,1.7,11.7-1.5,16.4C298.2,198.5,289.4,200.6,282.1,201z"/>
			<path class="st6" d="M232.5,169.6c-3.3,3.8,4.2,19.1,22.1,26.9c10.3,4.5,21.8,5.7,30.4,4.4c6.2-0.9,11.5-4,14.3-8.3
				c2.9-4.4,3.8-11.6-2.3-16c-5.1-3.8-10.5-6.3-19.6-6.3c-9.6,0-16.4,4.1-22.8,4.9c-7.9,1-14.6-1.3-14.6-1.3s3.8,6,11.8,10.2
				c8,4.2,18.3,5.7,18.3,5.7s-13.6,1.2-24.5-5.2C234.8,178.1,232.5,169.6,232.5,169.6z"/>
			<path d="M280.9,203.4c-6.4,0-17.5-0.7-27.1-4.6c-14.1-5.8-22.4-16.5-24.1-24c-0.9-3.7,0.1-5.8,1.1-6.9c1.6-1.8,4-1.9,7.1-2
				c2.2-0.1,4.9-0.2,8-0.9c2.5-0.5,5-1.5,7.9-2.7c6.9-2.8,15.5-6.2,28.7-4.6c16,1.9,24.1,15.8,24.5,16.4c0.7,1.2,0.3,2.7-0.9,3.4
				c-1.2,0.7-2.7,0.3-3.4-0.9c-0.1-0.2-7.3-12.4-20.7-14c-11.9-1.4-19.5,1.6-26.2,4.3c-3,1.2-5.8,2.3-8.7,2.9
				c-3.5,0.7-6.4,0.9-8.8,1c-1.4,0.1-3.1,0.1-3.6,0.4c-0.1,0.2-0.3,1.1,0.2,2.9c1.8,6.2,9.1,15.1,21,20c13.1,5.3,29.8,4.1,30,4.1
				c1.4-0.1,2.6,0.9,2.7,2.3s-0.9,2.6-2.3,2.7C285.8,203.2,283.8,203.4,280.9,203.4z M234.3,171.3L234.3,171.3L234.3,171.3z"/>
			<path d="M301.1,181.6c-0.4,0-0.7-0.1-1-0.4c-0.1-0.1-7.9-7.5-18.2-8.9c-8.2-1.1-13.7,0.7-19.1,2.4c-3.2,1-6.2,2-9.5,2.3
				c-8.4,0.7-13.5-1.5-13.7-1.6c-0.8-0.3-1.1-1.2-0.8-2c0.3-0.8,1.2-1.1,2-0.8c0,0,4.7,2,12.2,1.3c3-0.3,5.8-1.2,8.8-2.1
				c5.4-1.8,11.6-3.7,20.4-2.6c11.2,1.5,19.5,9.4,19.8,9.7c0.6,0.6,0.6,1.5,0,2.1C301.9,181.4,301.5,181.6,301.1,181.6z"/>
			<path d="M301.3,165.9c-4.1,0-7.2-0.9-7.5-1c-0.1,0-0.3-0.1-0.4-0.1c-0.6-0.3-15.2-7.4-16.4-29.7c-0.8-15.6,6-26.3,12.7-31.1
				c3.4-2.4,6.6-3.2,8.8-2.3c3.5,1.4,3.7,5.3,4,9.4c0.2,3.9,0.5,8.8,3.3,13.6c5.2,9,13.3,11.7,13.4,11.7c0.7,0.2,1.2,0.7,1.5,1.3
				c2,4.3,3.4,14.7-5.6,23.3C310.9,164.9,305.6,165.9,301.3,165.9z M295.3,160.2c1.5,0.4,10.8,2.4,16.3-2.8
				c7.1-6.8,5.6-14.2,4.8-16.7c-2.8-1.2-10.1-4.9-15-13.5c-3.3-5.8-3.7-11.6-3.9-15.8c-0.1-1.9-0.3-4.8-0.9-5.1
				c-0.4-0.1-2.5,0.4-5.3,2.8c-2.4,2.1-10.2,10-9.3,25.7C283,152.9,293.7,159.3,295.3,160.2z"/>
			<path class="st4" d="M421.7,138.8c0,0,9.1-2.9,14.8-12.8c5.8-10.1,1.7-20.2,6-21.9c4.1-1.7,19.3,8.6,18.1,30.9
				c-1.1,21.1-15,27.6-15,27.6s-11.8,3.4-18.9-3.4C416.7,149.5,421.7,138.8,421.7,138.8z"/>
			<path class="st5" d="M442.5,104c4.1-1.7,19.3,8.6,18.1,30.9c-1.1,21.1-15,27.6-15,27.6s-8.5,2.5-15.4-0.9c0,0,18.8-6.8,22.6-25.2
				C457.7,112.7,442.5,104,442.5,104z"/>
			<path d="M438.8,165.9c-4.3,0-9.7-1-13.8-4.9c-9-8.6-7.6-19-5.6-23.3c0.3-0.6,0.8-1.1,1.5-1.3c0.1,0,8.3-2.8,13.4-11.7
				c2.8-4.8,3-9.7,3.3-13.6c0.2-4.1,0.5-8,4-9.4c2.2-0.9,5.4-0.1,8.8,2.3c6.7,4.8,13.5,15.4,12.7,31.1
				c-1.2,22.3-15.8,29.4-16.4,29.7c-0.1,0.1-0.2,0.1-0.4,0.1C446.1,165,442.9,165.9,438.8,165.9z M423.6,140.7
				c-0.8,2.5-2.3,9.8,4.8,16.7c5.5,5.3,14.8,3.2,16.3,2.8c1.6-0.8,12.4-7.2,13.4-25.4c0.9-15.7-6.9-23.6-9.3-25.7
				c-2.8-2.4-4.9-2.9-5.4-2.8c-0.5,0.2-0.7,3.1-0.8,5c-0.2,4.2-0.6,10-3.9,15.8C433.7,135.8,426.5,139.5,423.6,140.7z"/>
			<path class="st6" d="M507.5,169.6c3.3,3.8-4.2,19.1-22.1,26.9c-10.3,4.5-21.8,5.7-30.4,4.4c-6.2-0.9-11.5-4-14.3-8.3
				c-2.9-4.4-3.8-11.6,2.3-16c5.1-3.8,10.5-6.3,19.6-6.3c9.6,0,16.4,4.1,22.8,4.9c7.9,1,14.6-1.3,14.6-1.3s-3.8,6-11.8,10.2
				c-8,4.2-18.3,5.7-18.3,5.7s13.6,1.2,24.5-5.2C505.3,178.1,507.5,169.6,507.5,169.6z"/>
			<path d="M459.2,203.4c-3,0-4.9-0.1-5.2-0.2c-1.4-0.1-2.4-1.3-2.3-2.7c0.1-1.4,1.3-2.4,2.7-2.3c0.2,0,17,1.3,30-4.1
				c11.9-4.9,19.3-13.8,21-20c0.5-1.8,0.3-2.7,0.2-2.9c-0.5-0.2-2.2-0.3-3.6-0.4c-2.3-0.1-5.2-0.3-8.8-1c-2.9-0.6-5.8-1.7-8.7-2.9
				c-6.7-2.7-14.3-5.7-26.2-4.3c-13.4,1.6-20.6,13.8-20.7,14c-0.7,1.2-2.2,1.6-3.4,0.9c-1.2-0.7-1.6-2.2-0.9-3.4
				c0.3-0.6,8.5-14.5,24.5-16.4c13.1-1.6,21.7,1.9,28.7,4.6c2.9,1.2,5.4,2.2,7.9,2.7c3.1,0.7,5.8,0.8,8,0.9c3.1,0.1,5.6,0.3,7.1,2
				c1,1.1,1.9,3.2,1.1,6.9c-1.8,7.5-10,18.2-24.1,24C476.7,202.7,465.6,203.4,459.2,203.4z"/>
			<path d="M439,181.6c-0.4,0-0.8-0.2-1.1-0.5c-0.6-0.6-0.6-1.5,0-2.1c0.3-0.3,8.6-8.2,19.8-9.7c8.8-1.2,15,0.8,20.4,2.6
				c3,1,5.9,1.9,8.8,2.1c7.6,0.6,12.2-1.3,12.2-1.3c0.8-0.3,1.6,0,2,0.8c0.3,0.8,0,1.6-0.8,2c-0.2,0.1-5.3,2.3-13.7,1.6
				c-3.3-0.3-6.3-1.2-9.5-2.3c-5.4-1.7-11-3.5-19.1-2.4c-10.2,1.4-18.1,8.8-18.2,8.9C439.7,181.5,439.4,181.6,439,181.6z"/>
			<g>
				<g>
					<ellipse cx="329.5" cy="201.2" rx="11.1" ry="11.8"/>
					<circle class="st3" cx="332.4" cy="198.4" r="5.4"/>
				</g>
				<g>
					<ellipse cx="410.6" cy="201.2" rx="11.1" ry="11.8"/>
					<circle class="st3" cx="413.4" cy="198.4" r="5.4"/>
				</g>
			</g>
			<g>
				<ellipse class="st7" cx="315.9" cy="239.2" rx="11.8" ry="7.4"/>
				<ellipse class="st7" cx="424.2" cy="239.2" rx="11.8" ry="7.4"/>
			</g>
		</g>
	</g>
</g>
</svg>
