<svg id="egd84jWe9mP1" xmlns="http://www.w3.org/2000/svg" xmlns:xlink="http://www.w3.org/1999/xlink" viewBox="0 0 281.520000 191.910000" shape-rendering="geometricPrecision" text-rendering="geometricPrecision"><path id="egd84jWe9mP2" d="M233.170000,158.230000C233.170000,158.230000,245.920000,56.170000,142.800000,56.170000C39.680000,56.170000,52.440000,158.230000,52.440000,158.230000C52.440000,158.230000,38.170000,189.480000,60.940000,213.520000C80.080000,233.720000,118.350000,235.840000,142.800000,235.840000C167.250000,235.840000,205.530000,233.720000,224.660000,213.520000C247.430000,189.480000,233.170000,158.230000,233.170000,158.230000Z" transform="matrix(1 0 0 1 -2.04000000000000 -46.43000000000000)" fill="rgb(255,255,255)" stroke="none" stroke-width="1"/><path id="egd84jWe9mP3" d="M48.890000,170.650000C49.586408,166.386055,50.777791,162.217891,52.440000,158.230000C54.102209,154.242109,42.440000,78.480000,111.440000,59.980000C111.440000,59.980000,147.440000,65.980000,157.520000,103.920000C167,139.400000,150.980000,174.760000,109.180000,182.090000C70.600000,188.850000,48.890000,170.650000,48.890000,170.650000Z" transform="matrix(1 0 0 1 -2.04000000000000 -46.43000000000000)" fill="rgb(68,52,55)" stroke="none" stroke-width="1"/><path id="egd84jWe9mP4" d="M142.800000,238.340000C127.520000,238.340000,81.020000,238.340000,59.130000,215.240000C37.240000,192.140000,47.940000,162.690000,49.880000,157.870000C49.250000,151.870000,45.880000,110.130000,71.600000,81.060000C87.600000,62.890000,111.600000,53.670000,142.800000,53.670000C174,53.670000,198,62.890000,214,81.060000C239.660000,110.130000,236.350000,151.840000,235.710000,157.870000C237.650000,162.690000,248.240000,192.250000,226.470000,215.240000C204.700000,238.230000,158.080000,238.340000,142.800000,238.340000ZM142.800000,58.670000C113.090000,58.670000,90.400000,67.320000,75.350000,84.370000C49.690000,113.430000,54.860000,157.480000,54.920000,157.920000C54.971598,158.380674,54.899094,158.846767,54.710000,159.270000C54.160000,160.490000,41.450000,189.270000,62.710000,211.800000C83.120000,233.340000,128,233.340000,142.710000,233.340000C157.420000,233.340000,202.350000,233.340000,222.710000,211.800000C244.020000,189.310000,231.300000,160.490000,230.710000,159.270000C230.520252,158.850554,230.451001,158.386572,230.510000,157.930000C230.560000,157.480000,235.690000,113.360000,210.060000,84.340000C195.180000,67.310000,172.500000,58.670000,142.800000,58.670000Z" transform="matrix(1 0 0 1 -2.04000000000000 -46.43000000000000)" fill="rgb(0,0,0)" stroke="none" stroke-width="1"/><path id="egd84jWe9mP5" d="M230.700000,146.130000C240.073860,146.644564,249.445975,145.087666,258.150000,141.570000C276.290000,134.310000,283.600000,118.430000,280.290000,114.680000C278.720000,112.900000,273.890000,114.080000,266.530000,112.550000C257.530000,110.670000,248.680000,103.450000,230.760000,105.300000C219.250000,106.480000,212.050000,114.740000,208.430000,120.430000C205.820000,124.560000,206.720000,132.150000,209.940000,136.820000C214.630000,143.630000,223.440000,145.680000,230.700000,146.130000Z" transform="matrix(1 0 0 1 -2.04000000000000 -46.43000000000000)" fill="rgb(255,255,255)" stroke="none" stroke-width="1"/><path id="egd84jWe9mP6" d="M91.140000,83.870000C84.852665,81.439802,79.613449,76.886885,76.330000,71C70.540000,60.900000,74.640000,50.830000,70.330000,49.060000C66.230000,47.440000,51,57.660000,52.240000,80C53.390000,101.080000,67.240000,107.620000,67.240000,107.620000C67.240000,107.620000,79.040000,111.040000,86.140000,104.230000C96.160000,94.640000,91.140000,83.870000,91.140000,83.870000Z" transform="matrix(1 0 0 1 -2.04000000000000 -46.43000000000000)" fill="rgb(214,167,138)" stroke="none" stroke-width="1"/><path id="egd84jWe9mP7" d="M70.310000,49.100000C66.230000,47.440000,51,57.660000,52.240000,80C53.390000,101.080000,67.240000,107.620000,67.240000,107.620000C67.240000,107.620000,75.720000,110.080000,82.630000,106.680000C82.630000,106.680000,63.790000,99.850000,60.030000,81.460000C55.170000,57.840000,70.310000,49.100000,70.310000,49.100000Z" transform="matrix(1 0 0 1 -2.04000000000000 -46.43000000000000)" fill="rgb(185,126,95)" stroke="none" stroke-width="1"/><path id="egd84jWe9mP8" d="M54.910000,146.130000C45.532843,146.645386,36.157294,145.088485,27.450000,141.570000C9.310000,134.310000,2,118.430000,5.320000,114.680000C6.890000,112.900000,11.710000,114.080000,19.070000,112.550000C28.070000,110.670000,36.930000,103.450000,54.840000,105.300000C66.350000,106.480000,73.560000,114.740000,77.170000,120.430000C79.790000,124.560000,78.880000,132.150000,75.670000,136.820000C71,143.630000,62.160000,145.680000,54.910000,146.130000Z" transform="matrix(1 0 0 1 -2.04000000000000 -46.43000000000000)" fill="rgb(255,255,255)" stroke="none" stroke-width="1"/><path id="egd84jWe9mP9" d="M5.320000,114.680000C2,118.430000,9.540000,133.770000,27.450000,141.570000C37.720000,146.040000,49.290000,147.260000,57.850000,145.990000C64.010000,145.080000,69.300000,141.990000,72.100000,137.690000C74.900000,133.390000,75.900000,126.130000,69.850000,121.690000C64.790000,117.940000,59.350000,115.360000,50.260000,115.360000C40.700000,115.360000,33.890000,119.470000,27.450000,120.280000C22.545190,120.863507,17.572591,120.417335,12.850000,118.970000C15.899099,123.253999,19.936632,126.739244,24.620000,129.130000C32.620000,133.350000,42.920000,134.860000,42.920000,134.860000C42.920000,134.860000,29.340000,136,18.380000,129.590000C7.420000,123.180000,5.320000,114.680000,5.320000,114.680000Z" transform="matrix(1 0 0 1 -2.04000000000000 -46.43000000000000)" fill="rgb(194,184,202)" stroke="none" stroke-width="1"/><path id="egd84jWe9mP10" d="M53.630000,148.480000C47.260000,148.480000,36.130000,147.820000,26.510000,143.880000C12.430000,138.120000,4.140000,127.430000,2.380000,119.880000C1.510000,116.160000,2.480000,114.070000,3.440000,112.980000C5,111.220000,7.440000,111.100000,10.560000,110.980000C13.246905,110.908174,15.923006,110.610458,18.560000,110.090000C21.270008,109.423002,23.919294,108.529871,26.480000,107.420000C33.400000,104.660000,42,101.240000,55.140000,102.800000C71.140000,104.710000,79.250000,118.650000,79.590000,119.250000C80.086528,120.028370,80.113645,121.017034,79.660532,121.821451C79.207418,122.625868,78.347842,123.115074,77.424831,123.093843C76.501821,123.072612,75.665648,122.544400,75.250000,121.720000C75.130000,121.520000,67.950000,109.360000,54.550000,107.720000C42.670000,106.310000,35.050000,109.340000,28.330000,112.010000C25.503867,113.254190,22.576542,114.254499,19.580000,115C16.685994,115.575378,13.749271,115.909857,10.800000,116C9.575776,115.991010,8.354531,116.121858,7.160000,116.390000C6.944535,117.363786,7.021061,118.379491,7.380000,119.310000C9.140000,125.500000,16.470000,134.380000,28.380000,139.310000C41.440000,144.660000,58.210000,143.400000,58.380000,143.390000C59.273164,143.320333,60.135648,143.732456,60.642564,144.471125C61.149479,145.209794,61.223812,146.162789,60.837564,146.971125C60.451315,147.779461,59.663164,148.320333,58.770000,148.390000C58.560000,148.330000,56.620000,148.480000,53.630000,148.480000ZM7.110000,116.410000" transform="matrix(1 0 0 1 -2.04000000000000 -46.43000000000000)" fill="rgb(0,0,0)" stroke="none" stroke-width="1"/><path id="egd84jWe9mP11" d="M73.840000,126.700000C73.465948,126.689633,73.109277,126.539831,72.840000,126.280000C72.770000,126.210000,64.900000,118.770000,54.670000,117.390000C46.520000,116.290000,40.940000,118.090000,35.550000,119.830000C32.465001,120.952896,29.260308,121.714640,26,122.100000C17.630000,122.810000,12.530000,120.610000,12.310000,120.510000C11.571624,120.162401,11.246628,119.288267,11.578584,118.542727C11.910540,117.797187,12.777627,117.453835,13.530000,117.770000C14.282373,118.086165,18.200000,119.770000,25.740000,119.110000C28.760647,118.745538,31.729848,118.037627,34.590000,117C40,115.220000,46.200000,113.230000,55,114.420000C66.220000,115.930000,74.510000,123.780000,74.850000,124.120000C75.285465,124.539285,75.426689,125.178994,75.208220,125.742643C74.989751,126.306293,74.454289,126.683720,73.850000,126.700000Z" transform="matrix(1 0 0 1 -2.04000000000000 -46.43000000000000)" fill="rgb(0,0,0)" stroke="none" stroke-width="1"/><path id="egd84jWe9mP12" d="M74,111C71.463854,110.994333,68.939261,110.658168,66.490000,110C66.362951,109.963816,66.239179,109.916983,66.120000,109.860000C65.500000,109.570000,50.940000,102.430000,49.730000,80.120000C48.880000,64.490000,55.730000,53.830000,62.420000,49.060000C65.780000,46.670000,69,45.820000,71.230000,46.730000C74.740000,48.160000,74.970000,52.030000,75.230000,56.130000C75.460000,60.050000,75.750000,64.940000,78.500000,69.740000C81.470421,75.087118,86.202293,79.239433,91.890000,81.490000C92.561170,81.699829,93.112935,82.182623,93.410000,82.820000C95.410000,87.100000,96.810000,97.480000,87.840000,106.080000C83.710000,110,78.340000,111,74,111ZM68.080000,105.290000C69.570000,105.660000,78.870000,107.710000,84.360000,102.450000C91.470000,95.670000,90,88.300000,89.200000,85.810000C82.871803,83.040454,77.609689,78.297535,74.200000,72.290000C70.870000,66.460000,70.530000,60.700000,70.280000,56.480000C70.170000,54.560000,70,51.660000,69.400000,51.420000C68.990000,51.340000,66.870000,51.820000,64.100000,54.200000C61.700000,56.260000,53.930000,64.200000,54.780000,79.910000C55.730000,98.050000,66.490000,104.450000,68.100000,105.310000Z" transform="matrix(1 0 0 1 -2.04000000000000 -46.43000000000000)" fill="rgb(0,0,0)" stroke="none" stroke-width="1"/><path id="egd84jWe9mP13" d="M194.460000,83.870000C200.747335,81.439802,205.986551,76.886885,209.270000,71C215.060000,60.900000,210.970000,50.830000,215.270000,49.060000C219.340000,47.400000,234.550000,57.620000,233.330000,80C232.180000,101.080000,218.330000,107.620000,218.330000,107.620000C218.330000,107.620000,206.520000,111.040000,199.420000,104.230000C189.440000,94.640000,194.460000,83.870000,194.460000,83.870000Z" transform="matrix(1 0 0 1 -2.04000000000000 -46.43000000000000)" fill="rgb(214,167,138)" stroke="none" stroke-width="1"/><path id="egd84jWe9mP14" d="M215.300000,49.100000C219.370000,47.440000,234.580000,57.660000,233.360000,80.040000C232.210000,101.120000,218.360000,107.660000,218.360000,107.660000C218.360000,107.660000,209.870000,110.120000,202.960000,106.720000C202.960000,106.720000,221.810000,99.890000,225.560000,81.500000C230.430000,57.840000,215.300000,49.100000,215.300000,49.100000Z" transform="matrix(1 0 0 1 -2.04000000000000 -46.43000000000000)" fill="rgb(185,126,95)" stroke="none" stroke-width="1"/><path id="egd84jWe9mP15" d="M211.580000,111C207.260000,111,201.890000,110,197.760000,106.060000C188.760000,97.460000,190.200000,87.060000,192.200000,82.800000C192.490707,82.161670,193.040075,81.677790,193.710000,81.470000C199.371796,79.217903,204.095469,75.101006,207.100000,69.800000C209.860000,65,210.100000,60.110000,210.370000,56.190000C210.610000,52.090000,210.840000,48.190000,214.370000,46.790000C216.610000,45.880000,219.820000,46.730000,223.180000,49.130000C229.880000,53.890000,236.720000,64.550000,235.880000,80.180000C234.660000,102.490000,220.100000,109.630000,219.490000,109.920000C219.367396,109.977031,219.240299,110.023856,219.110000,110.060000C216.651767,110.700548,214.120263,111.016566,211.580000,111ZM196.400000,85.810000C195.590000,88.330000,194.110000,95.660000,201.220000,102.470000C206.710000,107.730000,216.010000,105.680000,217.500000,105.310000C219.080000,104.470000,229.870000,98.080000,230.860000,79.910000C231.720000,64.210000,223.950000,56.260000,221.550000,54.200000C218.770000,51.820000,216.640000,51.340000,216.190000,51.440000C215.740000,51.540000,215.480000,54.560000,215.360000,56.440000C215.120000,60.660000,214.780000,66.440000,211.440000,72.250000C208.026736,78.278923,202.749037,83.037274,196.400000,85.810000Z" transform="matrix(1 0 0 1 -2.04000000000000 -46.43000000000000)" fill="rgb(0,0,0)" stroke="none" stroke-width="1"/><path id="egd84jWe9mP16" d="M280.290000,114.680000C283.600000,118.430000,276.070000,133.770000,258.150000,141.570000C247.880000,146.040000,236.310000,147.260000,227.760000,145.990000C221.590000,145.080000,216.300000,141.990000,213.500000,137.690000C210.700000,133.390000,209.700000,126.130000,215.750000,121.690000C220.820000,117.940000,226.260000,115.360000,235.350000,115.360000C244.900000,115.360000,251.720000,119.470000,258.150000,120.280000C263.054810,120.863507,268.027409,120.417335,272.750000,118.970000C269.701137,123.236405,265.671229,126.707271,261,129.090000C252.950000,133.310000,242.700000,134.820000,242.700000,134.820000C242.700000,134.820000,256.270000,136.030000,267.230000,129.590000C278.190000,123.150000,280.290000,114.680000,280.290000,114.680000Z" transform="matrix(1 0 0 1 -2.04000000000000 -46.43000000000000)" fill="rgb(194,184,202)" stroke="none" stroke-width="1"/><path id="egd84jWe9mP17" d="M232,148.480000C229,148.480000,227.070000,148.330000,226.840000,148.310000C225.459288,148.202304,224.427304,146.995712,224.535000,145.615000C224.642696,144.234288,225.849288,143.202304,227.230000,143.310000C227.400000,143.310000,244.230000,144.560000,257.230000,139.230000C269.160000,134.350000,276.490000,125.470000,278.230000,119.230000C278.593096,118.300433,278.669716,117.283478,278.450000,116.310000C277.255584,116.041164,276.034258,115.910308,274.810000,115.920000C271.860804,115.828808,268.924168,115.494339,266.030000,114.920000C263.035320,114.193935,260.108039,113.213714,257.280000,111.990000C250.560000,109.320000,242.950000,106.290000,231.060000,107.700000C217.620000,109.300000,210.430000,121.530000,210.360000,121.700000C209.658704,122.862511,208.157786,123.252831,206.979005,122.579242C205.800224,121.905653,205.374495,120.414391,206.020000,119.220000C206.360000,118.620000,214.480000,104.680000,230.470000,102.770000C243.610000,101.210000,252.220000,104.640000,259.130000,107.390000C261.673875,108.509420,264.306237,109.415862,267,110.100000C269.636994,110.620458,272.313095,110.918174,275,110.990000C278.110000,111.140000,280.560000,111.260000,282.120000,112.990000C283.120000,114.080000,284.050000,116.170000,283.180000,119.890000C281.430000,127.400000,273.130000,138.090000,259.060000,143.890000C249.470000,147.820000,238.340000,148.480000,232,148.480000Z" transform="matrix(1 0 0 1 -2.04000000000000 -46.43000000000000)" fill="rgb(0,0,0)" stroke="none" stroke-width="1"/><path id="egd84jWe9mP18" d="M211.760000,126.700000C211.352927,126.697474,210.963878,126.531768,210.680000,126.240000C210.095093,125.654365,210.095093,124.705635,210.680000,124.120000C211.030000,123.780000,219.310000,115.930000,230.530000,114.420000C239.360000,113.230000,245.530000,115.220000,250.980000,116.970000C253.826075,118.014908,256.781722,118.732852,259.790000,119.110000C267.400000,119.760000,271.960000,117.790000,272.010000,117.770000C272.505213,117.517229,273.099619,117.559111,273.554494,117.878826C274.009369,118.198540,274.250086,118.743635,274.179968,119.295189C274.109851,119.846744,273.740402,120.314270,273.220000,120.510000C273.010000,120.610000,267.900000,122.810000,259.540000,122.100000C256.303207,121.710484,253.122170,120.948780,250.060000,119.830000C244.660000,118.090000,239.060000,116.290000,230.930000,117.390000C220.710000,118.770000,212.840000,126.210000,212.760000,126.280000C212.491824,126.541498,212.134471,126.691587,211.760000,126.700000Z" transform="matrix(1 0 0 1 -2.04000000000000 -46.43000000000000)" fill="rgb(0,0,0)" stroke="none" stroke-width="1"/><g id="egd84jWe9mP19" opacity="0"><ellipse id="egd84jWe9mP20" rx="11.070000" ry="11.760000" transform="matrix(1 0 0 1 100.23999999999999 99.89000000000000)" fill="rgb(0,0,0)" stroke="none" stroke-width="1"/><circle id="egd84jWe9mP21" r="5.440000" transform="matrix(1 0 0 1 103.11000000000000 97.06999999999999)" fill="rgb(255,255,255)" stroke="none" stroke-width="1"/></g><ellipse id="egd84jWe9mP22" rx="11.070000" ry="11.760000" transform="matrix(1 0 0 1 181.28000000000000 99.89000000000000)" fill="rgb(0,0,0)" stroke="none" stroke-width="1"/><circle id="egd84jWe9mP23" r="5.440000" transform="matrix(1 0 0 1 184.16000000000000 97.06999999999999)" fill="rgb(255,255,255)" stroke="none" stroke-width="1"/><ellipse id="egd84jWe9mP24" rx="11.820000" ry="7.440000" transform="matrix(1 0 0 1 86.59999999999999 137.84999999999999)" fill="rgb(255,134,168)" stroke="none" stroke-width="1"/><ellipse id="egd84jWe9mP25" rx="11.820000" ry="7.440000" transform="matrix(1 0 0 1 194.91999999999999 137.84999999999999)" fill="rgb(255,134,168)" stroke="none" stroke-width="1"/><script><![CDATA[!function(t,n){"object"==typeof exports&&"undefined"!=typeof module?module.exports=n():"function"==typeof define&&define.amd?define(n):(t="undefined"!=typeof globalThis?globalThis:t||self).__SVGATOR_PLAYER__=n()}(this,(function(){"use strict";function t(n){return(t="function"==typeof Symbol&&"symbol"==typeof Symbol.iterator?function(t){return typeof t}:function(t){return t&&"function"==typeof Symbol&&t.constructor===Symbol&&t!==Symbol.prototype?"symbol":typeof t})(n)}function n(t,n){if(!(t instanceof n))throw new TypeError("Cannot call a class as a function")}function r(t,n){for(var r=0;r<n.length;r++){var e=n[r];e.enumerable=e.enumerable||!1,e.configurable=!0,"value"in e&&(e.writable=!0),Object.defineProperty(t,e.key,e)}}function e(t,n,e){return n&&r(t.prototype,n),e&&r(t,e),t}function i(t){return(i=Object.setPrototypeOf?Object.getPrototypeOf:function(t){return t.__proto__||Object.getPrototypeOf(t)})(t)}function o(t,n){return(o=Object.setPrototypeOf||function(t,n){return t.__proto__=n,t})(t,n)}function u(t,n){return!n||"object"!=typeof n&&"function"!=typeof n?function(t){if(void 0===t)throw new ReferenceError("this hasn't been initialised - super() hasn't been called");return t}(t):n}function a(t){var n=function(){if("undefined"==typeof Reflect||!Reflect.construct)return!1;if(Reflect.construct.sham)return!1;if("function"==typeof Proxy)return!0;try{return Boolean.prototype.valueOf.call(Reflect.construct(Boolean,[],(function(){}))),!0}catch(t){return!1}}();return function(){var r,e=i(t);if(n){var o=i(this).constructor;r=Reflect.construct(e,arguments,o)}else r=e.apply(this,arguments);return u(this,r)}}function l(t,n,r){return(l="undefined"!=typeof Reflect&&Reflect.get?Reflect.get:function(t,n,r){var e=function(t,n){for(;!Object.prototype.hasOwnProperty.call(t,n)&&null!==(t=i(t)););return t}(t,n);if(e){var o=Object.getOwnPropertyDescriptor(e,n);return o.get?o.get.call(r):o.value}})(t,n,r||t)}var f=Math.abs;function s(t){return t}function c(t,n,r){var e=1-r;return 3*r*e*(t*e+n*r)+r*r*r}function h(){var t=arguments.length>0&&void 0!==arguments[0]?arguments[0]:0,n=arguments.length>1&&void 0!==arguments[1]?arguments[1]:0,r=arguments.length>2&&void 0!==arguments[2]?arguments[2]:1,e=arguments.length>3&&void 0!==arguments[3]?arguments[3]:1;return t<0||t>1||r<0||r>1?null:f(t-n)<=1e-5&&f(r-e)<=1e-5?s:function(i){if(i<=0)return t>0?i*n/t:0===n&&r>0?i*e/r:0;if(i>=1)return r<1?1+(i-1)*(e-1)/(r-1):1===r&&t<1?1+(i-1)*(n-1)/(t-1):1;for(var o,u=0,a=1;u<a;){var l=c(t,r,o=(u+a)/2);if(f(i-l)<1e-5)break;l<i?u=o:a=o}return c(n,e,o)}}function v(){return 1}function y(t){return 1===t?1:0}function d(){var t=arguments.length>0&&void 0!==arguments[0]?arguments[0]:1,n=arguments.length>1&&void 0!==arguments[1]?arguments[1]:0;if(1===t){if(0===n)return y;if(1===n)return v}var r=1/t;return function(t){return t>=1?1:(t+=n*r)-t%r}}function g(t){var n=arguments.length>1&&void 0!==arguments[1]?arguments[1]:2;if(Number.isInteger(t))return t;var r=Math.pow(10,n);return Math.round(t*r)/r}var p=Math.PI/180;function m(t,n,r){return t>=.5?r:n}function b(t,n,r){return 0===t||n===r?n:t*(r-n)+n}function w(t,n,r){var e=b(t,n,r);return e<=0?0:e}function x(t,n,r){return 0===t?n:1===t?r:{x:b(t,n.x,r.x),y:b(t,n.y,r.y)}}function k(t,n,r){var e=function(t,n,r){return Math.round(b(t,n,r))}(t,n,r);return e<=0?0:e>=255?255:e}function A(t,n,r){return 0===t?n:1===t?r:{r:k(t,n.r,r.r),g:k(t,n.g,r.g),b:k(t,n.b,r.b),a:b(t,null==n.a?1:n.a,null==r.a?1:r.a)}}function _(t,n,r){if(0===t)return n;if(1===t)return r;var e=n.length;if(e!==r.length)return m(t,n,r);for(var i=[],o=0;o<e;o++)i.push(A(t,n[o],r[o]));return i}function S(t,n){for(var r=[],e=0;e<t;e++)r.push(n);return r}function O(t,n){if(--n<=0)return t;var r=(t=Object.assign([],t)).length;do{for(var e=0;e<r;e++)t.push(t[e])}while(--n>0);return t}var M,j=function(){function t(r){n(this,t),this.list=r,this.length=r.length}return e(t,[{key:"setAttribute",value:function(t,n){for(var r=this.list,e=0;e<this.length;e++)r[e].setAttribute(t,n)}},{key:"removeAttribute",value:function(t){for(var n=this.list,r=0;r<this.length;r++)n[r].removeAttribute(t)}},{key:"style",value:function(t,n){for(var r=this.list,e=0;e<this.length;e++)r[e].style[t]=n}}]),t}(),F=/-./g,P=function(t,n){return n.toUpperCase()};function B(t){return"function"==typeof t?t:m}function I(t){return t?"function"==typeof t?t:Array.isArray(t)?function(t){var n=arguments.length>1&&void 0!==arguments[1]?arguments[1]:s;if(!Array.isArray(t))return n;switch(t.length){case 1:return d(t[0])||n;case 2:return d(t[0],t[1])||n;case 4:return h(t[0],t[1],t[2],t[3])||n}return n}(t,null):function(t,n){var r=arguments.length>2&&void 0!==arguments[2]?arguments[2]:s;switch(t){case"linear":return s;case"steps":return d(n.steps||1,n.jump||0)||r;case"bezier":case"cubic-bezier":return h(n.x1||0,n.y1||0,n.x2||0,n.y2||0)||r}return r}(t.type,t.value,null):null}function R(t,n,r){var e=arguments.length>3&&void 0!==arguments[3]&&arguments[3],i=n.length-1;if(t<=n[0].t)return e?[0,0,n[0].v]:n[0].v;if(t>=n[i].t)return e?[i,1,n[i].v]:n[i].v;var o,u=n[0],a=null;for(o=1;o<=i;o++){if(!(t>n[o].t)){a=n[o];break}u=n[o]}return null==a?e?[i,1,n[i].v]:n[i].v:u.t===a.t?e?[o,1,a.v]:a.v:(t=(t-u.t)/(a.t-u.t),u.e&&(t=u.e(t)),e?[o,t,r(t,u.v,a.v)]:r(t,u.v,a.v))}function q(t,n){var r=arguments.length>2&&void 0!==arguments[2]?arguments[2]:null;return t&&t.length?"function"!=typeof n?null:("function"!=typeof r&&(r=null),function(e){var i=R(e,t,n);return null!=i&&r&&(i=r(i)),i}):null}function E(t,n){return t.t-n.t}function T(n,r,e,i,o){var u,a="@"===e[0],l="#"===e[0],f=M[e],s=m;switch(a?(u=e.substr(1),e=u.replace(F,P)):l&&(e=e.substr(1)),t(f)){case"function":if(s=f(i,o,R,I,e,a,r,n),l)return s;break;case"string":s=q(i,B(f));break;case"object":if((s=q(i,B(f.i),f.f))&&"function"==typeof f.u)return f.u(r,s,e,a,n)}return s?function(t,n,r){var e=arguments.length>3&&void 0!==arguments[3]&&arguments[3];if(e)return t instanceof j?function(e){return t.style(n,r(e))}:function(e){return t.style[n]=r(e)};if(Array.isArray(n)){var i=n.length;return function(e){var o=r(e);if(null==o)for(var u=0;u<i;u++)t[u].removeAttribute(n);else for(var a=0;a<i;a++)t[a].setAttribute(n,o)}}return function(e){var i=r(e);null==i?t.removeAttribute(n):t.setAttribute(n,i)}}(r,e,s,a):null}function N(n,r,e,i){if(!i||"object"!==t(i))return null;var o=null,u=null;return Array.isArray(i)?u=function(t){if(!t||!t.length)return null;for(var n=0;n<t.length;n++)t[n].e&&(t[n].e=I(t[n].e));return t.sort(E)}(i):(u=i.keys,o=i.data||null),u?T(n,r,e,u,o):null}function C(t,n,r){if(!r)return null;var e=[];for(var i in r)if(r.hasOwnProperty(i)){var o=N(t,n,i,r[i]);o&&e.push(o)}return e.length?e:null}function z(t,n){if(!n.duration||n.duration<0)return null;var r=function(t,n){if(!n)return null;var r=[];if(Array.isArray(n))for(var e=n.length,i=0;i<e;i++){var o=n[i];if(2===o.length){var u=null;if("string"==typeof o[0])u=t.getElementById(o[0]);else if(Array.isArray(o[0])){u=[];for(var a=0;a<o[0].length;a++)if("string"==typeof o[0][a]){var l=t.getElementById(o[0][a]);l&&u.push(l)}u=u.length?1===u.length?u[0]:new j(u):null}if(u){var f=C(t,u,o[1]);f&&(r=r.concat(f))}}}else for(var s in n)if(n.hasOwnProperty(s)){var c=t.getElementById(s);if(c){var h=C(t,c,n[s]);h&&(r=r.concat(h))}}return r.length?r:null}(t,n.elements);return r?function(t,n){var r=arguments.length>2&&void 0!==arguments[2]?arguments[2]:1/0,e=arguments.length>3&&void 0!==arguments[3]?arguments[3]:1,i=arguments.length>4&&void 0!==arguments[4]&&arguments[4],o=arguments.length>5&&void 0!==arguments[5]?arguments[5]:1,u=t.length,a=e>0?n:0;i&&r%2==0&&(a=n-a);var l=null;return function(f,s){var c=f%n,h=1+(f-c)/n;s*=e,i&&h%2==0&&(s=-s);var v=!1;if(h>r)c=a,v=!0,-1===o&&(c=e>0?0:n);else if(s<0&&(c=n-c),c===l)return!1;l=c;for(var y=0;y<u;y++)t[y](c);return v}}(r,n.duration,n.iterations||1/0,n.direction||1,!!n.alternate,n.fill||1):null}var L=function(){function t(r,e){var i=arguments.length>2&&void 0!==arguments[2]?arguments[2]:{};n(this,t),this._id=0,this._running=!1,this._rollingBack=!1,this._animations=r,this.duration=e.duration,this.alternate=e.alternate,this.fill=e.fill,this.iterations=e.iterations,this.direction=i.direction||1,this.speed=i.speed||1,this.fps=i.fps||100,this.offset=i.offset||0,this.rollbackStartOffset=0}return e(t,[{key:"_rollback",value:function(){var t=this,n=1/0,r=null;this.rollbackStartOffset=this.offset,this._rollingBack||(this._rollingBack=!0,this._running=!0);this._id=window.requestAnimationFrame((function e(i){if(t._rollingBack){null==r&&(r=i);var o=i-r,u=t.rollbackStartOffset-o,a=Math.round(u*t.speed);if(a>t.duration&&n!=1/0){var l=!!t.alternate&&a/t.duration%2>1,f=a%t.duration;a=(f+=l?t.duration:0)||t.duration}var s=t.fps?1e3/t.fps:0,c=Math.max(0,a);if(c<n-s){t.offset=c,n=c;for(var h=t._animations,v=h.length,y=0;y<v;y++)h[y](c,t.direction)}var d=!1;if(t.iterations>0&&-1===t.fill){var g=t.iterations*t.duration,p=g==a;a=p?0:a,t.offset=p?0:t.offset,d=a>g}a>0&&t.offset>=a&&!d?t._id=window.requestAnimationFrame(e):t.stop()}}))}},{key:"_start",value:function(){var t=this,n=arguments.length>0&&void 0!==arguments[0]?arguments[0]:0,r=-1/0,e=null,i={},o=function o(u){t._running=!0,null==e&&(e=u);var a=Math.round((u-e+n)*t.speed),l=t.fps?1e3/t.fps:0;if(a>r+l&&!t._rollingBack){t.offset=a,r=a;for(var f=t._animations,s=f.length,c=0,h=0;h<s;h++)i[h]?c++:(i[h]=f[h](a,t.direction),i[h]&&c++);if(c===s)return void t._stop()}t._id=window.requestAnimationFrame(o)};this._id=window.requestAnimationFrame(o)}},{key:"_stop",value:function(){this._id&&window.cancelAnimationFrame(this._id),this._running=!1,this._rollingBack=!1}},{key:"play",value:function(){!this._rollingBack&&this._running||(this._rollingBack=!1,this.rollbackStartOffset>this.duration&&(this.offset=this.rollbackStartOffset-(this.rollbackStartOffset-this.offset)%this.duration,this.rollbackStartOffset=0),this._start(this.offset))}},{key:"stop",value:function(){this._stop(),this.offset=0,this.rollbackStartOffset=0;var t=this.direction,n=this._animations;window.requestAnimationFrame((function(){for(var r=0;r<n.length;r++)n[r](0,t)}))}},{key:"reachedToEnd",value:function(){return this.iterations>0&&this.offset>=this.iterations*this.duration}},{key:"restart",value:function(){this._stop(),this.offset=0,this._start()}},{key:"pause",value:function(){this._stop()}},{key:"reverse",value:function(){this.direction=-this.direction}}],[{key:"build",value:function(n,r){return(n=function(t,n){if(M=n,!t||!t.root||!Array.isArray(t.animations))return null;for(var r=document.getElementsByTagName("svg"),e=!1,i=0;i<r.length;i++)if(r[i].id===t.root&&!r[i].svgatorAnimation){(e=r[i]).svgatorAnimation=!0;break}if(!e)return null;var o=t.animations.map((function(t){return z(e,t)})).filter((function(t){return!!t}));return o.length?{element:e,animations:o,animationSettings:t.animationSettings,options:t.options||void 0}:null}(n,r))?{el:n.element,options:n.options||{},player:new t(n.animations,n.animationSettings,n.options)}:null}}]),t}();!function(){for(var t=0,n=["ms","moz","webkit","o"],r=0;r<n.length&&!window.requestAnimationFrame;++r)window.requestAnimationFrame=window[n[r]+"RequestAnimationFrame"],window.cancelAnimationFrame=window[n[r]+"CancelAnimationFrame"]||window[n[r]+"CancelRequestAnimationFrame"];window.requestAnimationFrame||(window.requestAnimationFrame=function(n){var r=Date.now(),e=Math.max(0,16-(r-t)),i=window.setTimeout((function(){n(r+e)}),e);return t=r+e,i},window.cancelAnimationFrame=window.clearTimeout)}();var D=/\.0+$/g;function Q(t){return Number.isInteger(t)?t+"":t.toFixed(6).replace(D,"")}function U(t){var n=arguments.length>1&&void 0!==arguments[1]?arguments[1]:" ";return t&&t.length?t.map(Q).join(n):""}function V(t){return t?null==t.a||t.a>=1?"rgb("+t.r+","+t.g+","+t.b+")":"rgba("+t.r+","+t.g+","+t.b+","+t.a+")":"transparent"}var $={f:null,i:function(t,n,r){return 0===t?n:1===t?r:{x:w(t,n.x,r.x),y:w(t,n.y,r.y)}},u:function(t,n){return function(r){var e=n(r);t.setAttribute("rx",Q(e.x)),t.setAttribute("ry",Q(e.y))}}},G={f:null,i:function(t,n,r){return 0===t?n:1===t?r:{width:w(t,n.width,r.width),height:w(t,n.height,r.height)}},u:function(t,n){return function(r){var e=n(r);t.setAttribute("width",Q(e.width)),t.setAttribute("height",Q(e.height))}}},H=Math.sin,Y=Math.cos,Z=Math.acos,J=Math.asin,K=Math.tan,W=Math.atan2,X=Math.PI/180,tt=180/Math.PI,nt=Math.sqrt,rt=function(){function t(){var r=arguments.length>0&&void 0!==arguments[0]?arguments[0]:1,e=arguments.length>1&&void 0!==arguments[1]?arguments[1]:0,i=arguments.length>2&&void 0!==arguments[2]?arguments[2]:0,o=arguments.length>3&&void 0!==arguments[3]?arguments[3]:1,u=arguments.length>4&&void 0!==arguments[4]?arguments[4]:0,a=arguments.length>5&&void 0!==arguments[5]?arguments[5]:0;n(this,t),this.m=[r,e,i,o,u,a],this.i=null,this.w=null,this.s=null}return e(t,[{key:"determinant",get:function(){var t=this.m;return t[0]*t[3]-t[1]*t[2]}},{key:"isIdentity",get:function(){if(null===this.i){var t=this.m;this.i=1===t[0]&&0===t[1]&&0===t[2]&&1===t[3]&&0===t[4]&&0===t[5]}return this.i}},{key:"point",value:function(t,n){var r=this.m;return{x:r[0]*t+r[2]*n+r[4],y:r[1]*t+r[3]*n+r[5]}}},{key:"translateSelf",value:function(){var t=arguments.length>0&&void 0!==arguments[0]?arguments[0]:0,n=arguments.length>1&&void 0!==arguments[1]?arguments[1]:0;if(!t&&!n)return this;var r=this.m;return r[4]+=r[0]*t+r[2]*n,r[5]+=r[1]*t+r[3]*n,this.w=this.s=this.i=null,this}},{key:"rotateSelf",value:function(){var t=arguments.length>0&&void 0!==arguments[0]?arguments[0]:0;if(t%=360){var n=H(t*=X),r=Y(t),e=this.m,i=e[0],o=e[1];e[0]=i*r+e[2]*n,e[1]=o*r+e[3]*n,e[2]=e[2]*r-i*n,e[3]=e[3]*r-o*n,this.w=this.s=this.i=null}return this}},{key:"scaleSelf",value:function(){var t=arguments.length>0&&void 0!==arguments[0]?arguments[0]:1,n=arguments.length>1&&void 0!==arguments[1]?arguments[1]:1;if(1!==t||1!==n){var r=this.m;r[0]*=t,r[1]*=t,r[2]*=n,r[3]*=n,this.w=this.s=this.i=null}return this}},{key:"skewSelf",value:function(t,n){if(n%=360,(t%=360)||n){var r=this.m,e=r[0],i=r[1],o=r[2],u=r[3];t&&(t=K(t*X),r[2]+=e*t,r[3]+=i*t),n&&(n=K(n*X),r[0]+=o*n,r[1]+=u*n),this.w=this.s=this.i=null}return this}},{key:"resetSelf",value:function(){var t=arguments.length>0&&void 0!==arguments[0]?arguments[0]:1,n=arguments.length>1&&void 0!==arguments[1]?arguments[1]:0,r=arguments.length>2&&void 0!==arguments[2]?arguments[2]:0,e=arguments.length>3&&void 0!==arguments[3]?arguments[3]:1,i=arguments.length>4&&void 0!==arguments[4]?arguments[4]:0,o=arguments.length>5&&void 0!==arguments[5]?arguments[5]:0,u=this.m;return u[0]=t,u[1]=n,u[2]=r,u[3]=e,u[4]=i,u[5]=o,this.w=this.s=this.i=null,this}},{key:"recomposeSelf",value:function(){var t=arguments.length>0&&void 0!==arguments[0]?arguments[0]:null,n=arguments.length>1&&void 0!==arguments[1]?arguments[1]:null,r=arguments.length>2&&void 0!==arguments[2]?arguments[2]:null,e=arguments.length>3&&void 0!==arguments[3]?arguments[3]:null,i=arguments.length>4&&void 0!==arguments[4]?arguments[4]:null;return this.isIdentity||this.resetSelf(),t&&(t.x||t.y)&&this.translateSelf(t.x,t.y),n&&this.rotateSelf(n),r&&(r.x&&this.skewSelf(r.x,0),r.y&&this.skewSelf(0,r.y)),!e||1===e.x&&1===e.y||this.scaleSelf(e.x,e.y),i&&(i.x||i.y)&&this.translateSelf(i.x,i.y),this}},{key:"decompose",value:function(){var t=arguments.length>0&&void 0!==arguments[0]?arguments[0]:0,n=arguments.length>1&&void 0!==arguments[1]?arguments[1]:0,r=this.m,e=r[0]*r[0]+r[1]*r[1],i=[[r[0],r[1]],[r[2],r[3]]],o=nt(e);if(0===o)return{origin:{x:r[4],y:r[5]},translate:{x:t,y:n},scale:{x:0,y:0},skew:{x:0,y:0},rotate:0};i[0][0]/=o,i[0][1]/=o;var u=r[0]*r[3]-r[1]*r[2]<0;u&&(o=-o);var a=i[0][0]*i[1][0]+i[0][1]*i[1][1];i[1][0]-=i[0][0]*a,i[1][1]-=i[0][1]*a;var l=nt(i[1][0]*i[1][0]+i[1][1]*i[1][1]);if(0===l)return{origin:{x:r[4],y:r[5]},translate:{x:t,y:n},scale:{x:o,y:0},skew:{x:0,y:0},rotate:0};i[1][0]/=l,i[1][1]/=l,a/=l;var f=0;return i[1][1]<0?(f=Z(i[1][1])*tt,i[0][1]<0&&(f=360-f)):f=J(i[0][1])*tt,u&&(f=-f),a=W(a,nt(i[0][0]*i[0][0]+i[0][1]*i[0][1]))*tt,u&&(a=-a),{origin:{x:r[4],y:r[5]},translate:{x:t,y:n},scale:{x:o,y:l},skew:{x:a,y:0},rotate:f}}},{key:"toString",value:function(){return null===this.s&&(this.s="matrix("+this.m.map(it).join(" ")+")"),this.s}}]),t}(),et=/\.0+$/;function it(t){return Number.isInteger(t)?t:t.toFixed(14).replace(et,"")}function ot(t,n,r){return t+(n-t)*r}function ut(t,n,r){var e=arguments.length>3&&void 0!==arguments[3]&&arguments[3],i={x:ot(t.x,n.x,r),y:ot(t.y,n.y,r)};return e&&(i.a=at(t,n)),i}function at(t,n){return Math.atan2(n.y-t.y,n.x-t.x)}Object.freeze({M:2,L:2,Z:0,H:1,V:1,C:6,Q:4,T:2,S:4,A:7});var lt={},ft=null;function st(n){var r=function(){if(ft)return ft;if("object"!==("undefined"==typeof document?"undefined":t(document)))return{};var n=document.createElementNS("http://www.w3.org/2000/svg","svg");return n.style.position="absolute",n.style.opacity="0.01",n.style.zIndex="-9999",n.style.left="-9999px",n.style.width="1px",n.style.height="1px",ft={svg:n}}().svg;if(!r)return function(t){return null};var e=document.createElementNS(r.namespaceURI,"path");e.setAttributeNS(null,"d",n),e.setAttributeNS(null,"fill","none"),e.setAttributeNS(null,"stroke","none"),r.appendChild(e);var i=e.getTotalLength();return function(t){var n=e.getPointAtLength(i*t);return{x:n.x,y:n.y}}}function ct(t){return lt[t]?lt[t]:lt[t]=st(t)}function ht(t,n,r,e){if(!t||!e)return!1;var i=["M",t.x,t.y];if(n&&r&&(i.push("C"),i.push(n.x),i.push(n.y),i.push(r.x),i.push(r.y)),n?!r:r){var o=n||r;i.push("Q"),i.push(o.x),i.push(o.y)}return n||r||i.push("L"),i.push(e.x),i.push(e.y),i.join(" ")}function vt(t,n,r,e){var i=arguments.length>4&&void 0!==arguments[4]?arguments[4]:1,o=ht(t,n,r,e),u=ct(o);try{return u(i)}catch(t){return null}}function yt(t,n,r,e){var i=1-e;return i*i*t+2*i*e*n+e*e*r}function dt(t,n,r,e){return 2*(1-e)*(n-t)+2*e*(r-n)}function gt(t,n,r,e){var i=arguments.length>4&&void 0!==arguments[4]&&arguments[4],o=vt(t,n,null,r,e);return o||(o={x:yt(t.x,n.x,r.x,e),y:yt(t.y,n.y,r.y,e)}),i&&(o.a=pt(t,n,r,e)),o}function pt(t,n,r,e){return Math.atan2(dt(t.y,n.y,r.y,e),dt(t.x,n.x,r.x,e))}function mt(t,n,r,e,i){var o=i*i;return i*o*(e-t+3*(n-r))+3*o*(t+r-2*n)+3*i*(n-t)+t}function bt(t,n,r,e,i){var o=1-i;return 3*(o*o*(n-t)+2*o*i*(r-n)+i*i*(e-r))}function wt(t,n,r,e,i){var o=arguments.length>5&&void 0!==arguments[5]&&arguments[5],u=vt(t,n,r,e,i);return u||(u={x:mt(t.x,n.x,r.x,e.x,i),y:mt(t.y,n.y,r.y,e.y,i)}),o&&(u.a=xt(t,n,r,e,i)),u}function xt(t,n,r,e,i){return Math.atan2(bt(t.y,n.y,r.y,e.y,i),bt(t.x,n.x,r.x,e.x,i))}function kt(t,n,r){var e=arguments.length>3&&void 0!==arguments[3]&&arguments[3];if(_t(n)){if(St(r))return gt(n,r.start,r,t,e)}else if(_t(r)){if(n.end)return gt(n,n.end,r,t,e)}else{if(n.end)return r.start?wt(n,n.end,r.start,r,t,e):gt(n,n.end,r,t,e);if(r.start)return gt(n,r.start,r,t,e)}return ut(n,r,t,e)}function At(t,n,r){var e=kt(t,n,r,!0);return e.a=function(t){var n=arguments.length>1&&void 0!==arguments[1]&&arguments[1];return n?t+Math.PI:t}(e.a)/p,e}function _t(t){return!t.type||"corner"===t.type}function St(t){return null!=t.start&&!_t(t)}var Ot=new rt;var Mt={f:Q,i:b},jt={f:Q,i:function(t,n,r){var e=b(t,n,r);return e<=0?0:e>=1?1:e}};function Ft(t,n,r,e,i,o,u,a){return n=function(t,n,r){for(var e,i,o,u=t.length-1,a={},l=0;l<=u;l++)(e=t[l]).e&&(e.e=n(e.e)),e.v&&"g"===(i=e.v).t&&i.r&&(o=r.getElementById(i.r))&&(a[i.r]=o.querySelectorAll("stop"));return a}(t,e,a),function(e){var i,o=r(e,t,Pt);return o?"c"===o.t?V(o.v):"g"===o.t?(n[o.r]&&function(t,n){for(var r=0,e=t.length;r<e;r++)t[r].setAttribute("stop-color",V(n[r]))}(n[o.r],o.v),(i=o.r)?"url(#"+i+")":"none"):"none":"none"}}function Pt(t,n,r){if(0===t)return n;if(1===t)return r;if(n&&r){var e=n.t;if(e===r.t)switch(n.t){case"c":return{t:e,v:A(t,n.v,r.v)};case"g":if(n.r===r.r)return{t:e,v:_(t,n.v,r.v),r:n.r}}}return m(t,n,r)}var Bt={fill:Ft,"fill-opacity":jt,stroke:Ft,"stroke-opacity":jt,"stroke-width":Mt,"stroke-dashoffset":{f:Q,i:b},"stroke-dasharray":{f:function(t){var n=arguments.length>1&&void 0!==arguments[1]?arguments[1]:" ";return t&&t.length>0&&(t=t.map((function(t){return Math.floor(1e4*t)/1e4}))),U(t,n)},i:function(t,n,r){var e,i,o,u=n.length,a=r.length;if(u!==a)if(0===u)n=S(u=a,0);else if(0===a)a=u,r=S(u,0);else{var l=(o=(e=u)*(i=a)/function(t,n){for(var r;n;)r=n,n=t%n,t=r;return t||1}(e,i))<0?-o:o;n=O(n,Math.floor(l/u)),r=O(r,Math.floor(l/a)),u=a=l}for(var f=[],s=0;s<u;s++)f.push(g(w(t,n[s],r[s]),6));return f}},opacity:jt,transform:function(n,r,e,i){if(!(n=function(n,r){if(!n||"object"!==t(n))return null;var e=!1;for(var i in n)n.hasOwnProperty(i)&&(n[i]&&n[i].length?(n[i].forEach((function(t){t.e&&(t.e=r(t.e))})),e=!0):delete n[i]);return e?n:null}(n,i)))return null;var o=function(t,i,o){var u=arguments.length>3&&void 0!==arguments[3]?arguments[3]:null;return n[t]?e(i,n[t],o):r&&r[t]?r[t]:u};return r&&r.a&&n.o?function(t){var r=e(t,n.o,At);return Ot.recomposeSelf(r,o("r",t,b,0)+r.a,o("k",t,x),o("s",t,x),o("t",t,x)).toString()}:function(t){return Ot.recomposeSelf(o("o",t,kt,null),o("r",t,b,0),o("k",t,x),o("s",t,x),o("t",t,x)).toString()}},r:Mt,"#size":G,"#radius":$,_:function(t,n){if(Array.isArray(t))for(var r=0;r<t.length;r++)this[t[r]]=n;else this[t]=n}};return function(t){!function(t,n){if("function"!=typeof n&&null!==n)throw new TypeError("Super expression must either be null or a function");t.prototype=Object.create(n&&n.prototype,{constructor:{value:t,writable:!0,configurable:!0}}),n&&o(t,n)}(u,t);var r=a(u);function u(){return n(this,u),r.apply(this,arguments)}return e(u,null,[{key:"build",value:function(t){var n=l(i(u),"build",this).call(this,t,Bt);n.el,n.options;var r=n.player;return function(t,n,r){t.play()}(r),r}}]),u}(L)}));
__SVGATOR_PLAYER__.build({"root":"egd84jWe9mP1","animations":[{"duration":3000,"direction":1,"iterations":1,"fill":1,"alternate":false,"speed":1,"elements":{"egd84jWe9mP19":{"opacity":[{"t":0,"v":0},{"t":100,"v":1},{"t":1000,"v":1},{"t":1100,"v":0},{"t":1200,"v":1},{"t":1900,"v":1},{"t":2000,"v":0},{"t":2100,"v":1}]}}}],"options":{"start":"load","hover":"restart","click":"restart","scroll":25,"font":"embed","exportedIds":"unique","svgFormat":"animated","title":"MiniLogoCowdi"},"animationSettings":{"duration":3000,"direction":1,"iterations":1,"fill":1,"alternate":false,"speed":1}})]]></script></svg>